<?xml version="1.0" standalone="no"?>
<!DOCTYPE svg PUBLIC "-//W3C//DTD SVG 20010904//EN"
 "http://www.w3.org/TR/2001/REC-SVG-20010904/DTD/svg10.dtd">
<svg version="1.0" xmlns="http://www.w3.org/2000/svg"
 width="1025.000000pt" height="523.000000pt" viewBox="0 0 1025.000000 523.000000"
 preserveAspectRatio="xMidYMid meet">

<g transform="translate(0.000000,523.000000) scale(0.100000,-0.100000)"
fill="#000000" stroke="none">
<path d="M2235 5209 c-214 -13 -427 -60 -639 -139 -99 -36 -152 -62 -101 -47
461 127 785 147 1190 72 531 -98 1065 -374 1610 -833 157 -132 413 -373 540
-508 115 -123 117 -124 161 -124 25 0 57 -6 72 -14 15 -8 150 -138 300 -288
191 -193 272 -280 272 -296 0 -26 -33 -62 -57 -62 -9 0 -78 61 -154 136 -90
90 -139 132 -144 124 -5 -8 49 -69 149 -169 121 -121 156 -162 156 -182 0 -29
-28 -59 -55 -59 -11 0 -88 69 -181 161 -105 105 -164 157 -169 149 -5 -8 58
-77 169 -189 97 -98 176 -184 176 -192 0 -28 -31 -59 -58 -59 -22 0 -61 34
-201 176 -105 106 -177 172 -182 167 -6 -6 49 -70 140 -164 94 -97 150 -162
151 -175 0 -25 -29 -54 -56 -54 -11 0 -117 98 -271 252 l-253 253 0 -78 c0
-69 -3 -81 -25 -102 -30 -31 -40 -31 -70 0 -28 27 -29 52 -17 294 l7 124 -90
83 c-286 265 -683 530 -1080 724 -466 226 -938 372 -1385 426 -181 22 -488 22
-646 1 -327 -45 -619 -162 -837 -335 -269 -215 -468 -544 -572 -947 -50 -196
-66 -329 -66 -565 0 -308 31 -508 121 -782 117 -354 302 -657 575 -937 394
-404 819 -627 1366 -715 425 -68 936 14 1399 224 396 180 726 426 1303 967
l207 195 -21 26 c-21 27 -789 821 -827 856 -21 18 -22 17 -194 -147 -292 -279
-552 -499 -719 -609 -454 -298 -913 -362 -1282 -177 -519 261 -786 838 -646
1394 54 212 164 402 329 565 492 488 1159 440 1847 -134 240 -200 463 -414
1203 -1156 937 -938 1179 -1165 1505 -1411 748 -562 1599 -749 2350 -518 107
33 287 100 283 105 -2 1 -48 -11 -103 -27 -224 -67 -548 -106 -770 -94 -564
31 -1081 228 -1640 624 -262 186 -494 388 -795 692 l-185 186 -59 5 -58 5
-284 284 c-229 230 -284 290 -284 311 0 27 31 58 59 58 8 0 76 -61 152 -136
90 -90 139 -132 144 -124 5 8 -49 69 -149 169 -163 163 -178 187 -140 225 33
33 55 19 220 -145 105 -105 164 -157 169 -149 5 8 -58 77 -169 189 -112 113
-176 185 -176 198 0 11 8 27 18 36 41 38 59 26 238 -159 104 -107 176 -174
183 -170 7 5 -44 65 -136 162 -82 85 -149 164 -151 175 -4 26 25 59 52 59 14
0 105 -84 273 -252 l253 -253 0 83 c0 69 3 85 20 102 24 24 38 25 68 4 23 -16
23 -18 21 -221 l-1 -205 43 -45 c126 -129 403 -348 629 -498 803 -533 1697
-810 2395 -745 647 61 1110 381 1389 960 75 156 113 262 164 450 l36 135 4
312 c4 352 -4 438 -63 669 -106 413 -307 771 -610 1083 -397 410 -852 649
-1378 726 -143 21 -472 21 -632 0 -499 -65 -1015 -298 -1475 -666 -189 -151
-615 -535 -759 -682 l-44 -46 231 -238 c127 -131 322 -332 434 -446 l203 -208
150 142 c524 496 785 691 1090 814 471 190 914 105 1260 -240 103 -104 169
-196 235 -330 69 -140 106 -270 119 -424 21 -233 -22 -450 -130 -661 -146
-286 -441 -531 -731 -610 -343 -93 -759 10 -1153 285 -255 178 -473 382 -1375
1284 -948 948 -1213 1197 -1525 1431 -422 316 -852 509 -1305 584 -86 15 -365
37 -415 34 -11 0 -74 -4 -140 -9z"/>
</g>
</svg>
