<?xml version="1.0" standalone="no"?>
<!DOCTYPE svg PUBLIC "-//W3C//DTD SVG 20010904//EN"
 "http://www.w3.org/TR/2001/REC-SVG-20010904/DTD/svg10.dtd">
<svg version="1.0" xmlns="http://www.w3.org/2000/svg"
 width="1024.000000pt" height="502.000000pt" viewBox="0 0 1024.000000 502.000000"
 preserveAspectRatio="xMidYMid meet">

<g transform="translate(0.000000,502.000000) scale(0.100000,-0.100000)"
fill="#000000" stroke="none">
<path d="M2175 5010 c-117 -11 -252 -34 -370 -65 -100 -26 -349 -114 -342
-121 2 -3 16 0 31 6 137 52 426 100 646 107 583 19 1136 -159 1725 -558 279
-189 502 -377 828 -699 236 -233 251 -246 282 -242 18 2 49 -4 68 -13 47 -22
577 -566 577 -592 0 -25 -30 -53 -58 -53 -14 0 -66 46 -153 135 -91 93 -136
132 -143 125 -7 -7 40 -60 147 -168 164 -165 179 -189 141 -226 -34 -34 -56
-20 -219 144 -105 105 -163 156 -169 150 -7 -7 50 -71 167 -188 113 -114 177
-186 177 -199 0 -11 -8 -27 -18 -36 -41 -37 -59 -25 -242 158 -116 116 -178
171 -184 165 -7 -7 40 -61 142 -163 156 -157 170 -178 134 -210 -43 -39 -56
-29 -314 235 l-247 253 -1 -46 0 -45 326 -280 c179 -153 332 -283 340 -287 11
-6 14 0 14 26 0 39 25 67 61 67 41 0 49 -17 49 -111 l0 -87 128 -94 c316 -235
557 -372 858 -491 313 -124 702 -207 1036 -222 l123 -5 -79 15 c-181 35 -433
144 -618 268 -282 189 -655 535 -1508 1399 -663 671 -973 967 -1270 1214 -484
401 -996 643 -1525 720 -124 17 -419 25 -540 14z"/>
<path d="M1590 4434 c-661 -60 -1119 -362 -1382 -910 -210 -439 -263 -1003
-141 -1519 118 -501 394 -953 791 -1296 437 -376 968 -581 1507 -582 424 0
815 99 1228 310 145 74 360 208 482 301 164 125 515 431 744 650 l56 54 -75
-60 c-300 -237 -669 -392 -1090 -457 -146 -23 -467 -31 -626 -16 -530 50
-1005 240 -1348 539 -276 241 -444 555 -476 890 -31 328 6 561 125 791 151
291 441 530 745 613 78 21 105 23 330 23 135 0 295 -6 355 -13 662 -76 1186
-291 1742 -714 58 -43 106 -78 108 -76 2 2 5 54 6 117 l3 115 -60 54 c-321
291 -635 506 -1039 712 -464 236 -953 394 -1410 455 -115 16 -481 27 -575 19z"/>
<path d="M6830 4034 c-19 -2 -78 -9 -130 -14 -315 -35 -657 -147 -925 -305
-103 -60 -255 -173 -349 -257 l-58 -53 147 -155 c82 -85 279 -286 438 -447
l291 -292 120 116 c163 158 407 377 541 486 286 234 585 386 855 433 142 24
355 15 475 -20 186 -55 331 -143 487 -294 53 -52 114 -118 134 -148 41 -60 48
-66 34 -30 -45 119 -163 295 -281 420 -242 255 -704 462 -1199 536 -129 20
-491 35 -580 24z"/>
</g>
</svg>
